HIERARCHY
ROOT Hips
{
 OFFSET 0.000000 0.000000 0.000000
 CHANNELS 6 Xposition Yposition Zposition Yrotation Xrotation Zrotation
 JOINT Chest
 {
  OFFSET 0.000000 9.588913 -0.003946
  CHANNELS 3 Yrotation Xrotation Zrotation
  JOINT Chest2
  {
   OFFSET 0.000000 9.541882 0.008053
   CHANNELS 3 Yrotation Xrotation Zrotation
   JOINT Chest3
   {
    OFFSET 0.000000 9.501360 0.000000
    CHANNELS 3 Yrotation Xrotation Zrotation
    JOINT Chest4
    {
     OFFSET 0.000000 9.491660 0.000000
     CHANNELS 3 Yrotation Xrotation Zrotation
     JOINT Neck
     {
      OFFSET 0.000000 14.331917 0.000000
      CHANNELS 3 Yrotation Xrotation Zrotation
      JOINT Head
      {
       OFFSET 0.000000 8.884799 0.017034
       CHANNELS 3 Yrotation Xrotation Zrotation
       End Site
       {
        OFFSET 0.000000 16.896195 0.008993
       }
      }
     }
     JOINT RightCollar
     {
      OFFSET -2.923010 9.499495 0.000000
      CHANNELS 3 Yrotation Xrotation Zrotation
      JOINT RightShoulder
      {
       OFFSET -13.795216 0.000000 0.000000
       CHANNELS 3 Yrotation Xrotation Zrotation
       JOINT RightElbow
       {
        OFFSET -30.272209 0.000000 0.000000
        CHANNELS 3 Yrotation Xrotation Zrotation
        JOINT RightWrist
        {
         OFFSET -24.478199 0.000000 0.000000
         CHANNELS 3 Yrotation Xrotation Zrotation
         End Site
         {
          OFFSET -18.090752 0.000000 0.000000
         }
        }
       }
      }
     }
     JOINT LeftCollar
     {
      OFFSET 2.923010 9.499495 0.000000
      CHANNELS 3 Yrotation Xrotation Zrotation
      JOINT LeftShoulder
      {
       OFFSET 13.795216 0.000000 0.000000
       CHANNELS 3 Yrotation Xrotation Zrotation
       JOINT LeftElbow
       {
        OFFSET 30.272209 0.000000 0.000000
        CHANNELS 3 Yrotation Xrotation Zrotation
        JOINT LeftWrist
        {
         OFFSET 24.478199 0.000000 0.000000
         CHANNELS 3 Yrotation Xrotation Zrotation
         End Site
         {
          OFFSET 18.090752 0.000000 0.000000
         }
        }
       }
      }
     }
    }
   }
  }
 }
 JOINT RightHip
 {
  OFFSET -7.826875 0.019532 0.001973
  CHANNELS 3 Yrotation Xrotation Zrotation
  JOINT RightKnee
  {
   OFFSET 0.000000 -40.546152 -0.001885
   CHANNELS 3 Yrotation Xrotation Zrotation
   JOINT RightAnkle
   {
    OFFSET 0.000000 -39.417092 -0.003189
    CHANNELS 3 Yrotation Xrotation Zrotation
    JOINT RightToe
    {
     OFFSET 0.000000 -7.579396 17.243563
     CHANNELS 3 Yrotation Xrotation Zrotation
     End Site
     {
      OFFSET 0.000000 -1.500329 6.694466
     }
    }
   }
  }
 }
 JOINT LeftHip
 {
  OFFSET 7.826875 0.019532 0.001973
  CHANNELS 3 Yrotation Xrotation Zrotation
  JOINT LeftKnee
  {
   OFFSET 0.000000 -40.546152 -0.001885
   CHANNELS 3 Yrotation Xrotation Zrotation
   JOINT LeftAnkle
   {
    OFFSET 0.000000 -39.417092 -0.003189
    CHANNELS 3 Yrotation Xrotation Zrotation
    JOINT LeftToe
    {
     OFFSET 0.000000 -7.579396 17.243563
     CHANNELS 3 Yrotation Xrotation Zrotation
     End Site
     {
      OFFSET 0.000000 -1.500329 6.694466
     }
    }
   }
  }
 }
}
MOTION
Frames: 17
Frame Time: 0.008333
0.000000 87.345680 0.000000 0.000000 -5.767889 0.000000 0.000000 11.653876 0.000000 0.000000 -5.885988 0.000000 0.000000 -0.000000 0.000000 0.000000 -0.000000 0.000000 0.000000 12.528808 0.000000 0.000000 0.711711 0.000000 0.000000 -0.000000 0.000000 0.000000 -0.000000 0.000000 2.309063 -0.000000 0.000000 -2.309063 -0.000000 -0.000000 0.000000 -0.000000 0.000000 0.000000 0.000000 0.000000 -2.309063 0.000000 0.000000 2.309063 -0.000000 0.000000 0.000000 8.520374 0.000000 0.000000 1.905768 0.000000 -0.000000 -4.658254 0.000000 0.000000 -0.000000 0.000000 0.000000 8.520374 0.000000 0.000000 1.905768 0.000000 -0.000000 -4.658254 0.000000 0.000000 -0.000000 0.000000
-1.563176 88.398877 19.400998 -18.332653 -7.320830 0.921829 2.727975 7.224525 -0.065518 1.542565 4.171078 0.015610 1.929660 5.213666 0.037142 1.542556 4.171082 0.015612 -1.375071 20.790211 -3.527334 -1.475792 2.820305 -6.007703 2.788772 -7.752553 0.425703 15.784698 -19.351001 70.315170 66.544087 -3.530974 11.804968 6.514747 -4.161646 -11.382665 -2.918826 -6.157357 2.905635 16.252633 -23.506078 -57.227959 -89.970686 19.891122 6.002831 -1.437873 -1.090872 19.572358 -23.490780 14.192115 -8.343586 -11.707720 4.538477 -1.030817 -7.660300 -9.041997 6.134466 0.104846 -0.312963 0.246256 -5.688244 -1.219830 1.055296 1.400305 11.860948 0.798643 2.995056 -1.848998 -3.374292 0.070702 0.430638 0.162558
-1.462479 88.384564 19.564682 -17.949425 -7.281392 0.996206 2.749236 7.302922 -0.166636 1.554848 4.203791 0.007076 1.944949 5.254590 0.026749 1.554841 4.203796 0.007078 -1.535465 20.769651 -3.475037 -1.781312 2.775420 -5.866297 2.980869 -7.826325 0.444808 15.759716 -19.821221 70.249768 67.023478 -3.435817 11.648852 6.785550 -4.161004 -11.626009 -2.996425 -6.226983 2.992578 15.992252 -23.856568 -56.767798 -89.930095 20.170965 6.284724 -1.036876 -1.005345 19.482202 -23.726603 13.893313 -8.541926 -11.874833 5.132664 -1.169641 -7.659099 -9.269177 6.371868 0.088615 -0.388712 0.233206 -5.857857 -1.217208 0.863156 1.227516 11.849227 0.705171 3.009946 -2.037395 -3.180379 0.065614 0.514167 0.110972
-1.350172 88.365452 19.745062 -17.585125 -7.213045 1.049841 2.777981 7.370379 -0.250698 1.572919 4.233501 -0.001220 1.967476 5.291761 0.016710 1.572912 4.233507 -0.001218 -1.701488 20.748634 -3.426824 -2.095953 2.730118 -5.730562 3.166196 -7.901724 0.458917 15.762375 -20.279304 70.183100 67.495203 -3.326816 11.468766 7.050341 -4.158393 -11.847985 -3.073877 -6.288981 3.077993 15.719288 -24.188394 -56.321496 -89.902195 20.450409 6.558026 -0.651107 -0.914046 19.424233 -23.941953 13.536858 -8.730679 -12.041268 5.812160 -1.304072 -7.666605 -9.548102 6.630786 0.076351 -0.448442 0.217452 -6.075352 -1.247977 0.691719 1.047742 11.872266 0.601167 3.071637 -2.240367 -2.996403 0.065532 0.591270 0.079710
-1.226945 88.341661 19.934879 -17.241612 -7.118966 1.098343 2.811188 7.428847 -0.329378 1.594410 4.261160 -0.009990 1.994274 5.326368 0.006111 1.594403 4.261166 -0.009988 -1.868895 20.727864 -3.384928 -2.411388 2.685867 -5.605789 3.357342 -7.982605 0.466382 15.795110 -20.722339 70.104592 67.957324 -3.195731 11.264119 7.309644 -4.149255 -12.064606 -3.144319 -6.339985 3.160846 15.436637 -24.501314 -55.886336 -89.893631 20.728265 6.824303 -0.276174 -0.820570 19.413085 -24.129538 13.115755 -8.917456 -12.203699 6.576746 -1.442646 -7.687952 -9.856071 6.910829 0.066835 -0.509560 0.200553 -6.348078 -1.317608 0.527597 0.892920 11.936254 0.491895 3.157585 -2.465832 -2.826845 0.069455 0.668412 0.066832
-1.095508 88.313679 20.127869 -16.918487 -7.008521 1.146932 2.846362 7.482834 -0.404278 1.617691 4.288260 -0.020769 2.023287 5.360287 -0.006981 1.617685 4.288267 -0.020768 -2.033856 20.707496 -3.349213 -2.720691 2.643009 -5.492850 3.561604 -8.066325 0.468262 15.858854 -21.150054 70.003450 68.408976 -3.038387 11.032552 7.566473 -4.129951 -12.276524 -3.203594 -6.382472 3.241548 15.148158 -24.791777 -55.459046 -89.908502 21.004221 7.088659 0.096216 -0.727785 19.436452 -24.275877 12.635207 -9.100139 -12.363869 7.428469 -1.593795 -7.729913 -10.192826 7.209985 0.058567 -0.571297 0.184723 -6.658213 -1.415575 0.370370 0.788166 12.027803 0.375494 3.235450 -2.700209 -2.664421 0.074478 0.741143 0.066884
-0.955856 88.282309 20.320663 -16.613791 -6.892830 1.215801 2.884987 7.538640 -0.494489 1.643232 4.317682 -0.034778 2.055088 5.397123 -0.024071 1.643225 4.317689 -0.034776 -2.196811 20.686241 -3.315149 -3.025931 2.599049 -5.383388 3.772673 -8.151088 0.472494 15.950876 -21.570345 69.870398 68.846509 -2.853558 10.779104 7.822114 -4.098046 -12.486742 -3.269062 -6.430328 3.324773 14.867920 -25.051571 -55.038866 -89.946273 21.282070 7.354541 0.464957 -0.636791 19.480392 -24.368755 12.096281 -9.296907 -12.529638 8.368107 -1.759544 -7.798195 -10.538112 7.519572 0.053817 -0.649561 0.176669 -6.974557 -1.535404 0.197955 0.736306 12.150029 0.254248 3.283412 -2.968504 -2.502429 0.080594 0.832264 0.075541
-0.816547 88.248573 20.510973 -16.315939 -6.792344 1.270462 2.925837 7.606097 -0.564992 1.670270 4.352593 -0.050895 2.088738 5.440833 -0.043750 1.670262 4.352600 -0.050892 -2.358341 20.662823 -3.279642 -3.329033 2.551582 -5.271607 3.981424 -8.236554 0.482448 16.074203 -21.985406 69.700330 69.267337 -2.646039 10.510547 8.079326 -4.055622 -12.700752 -3.346694 -6.485254 3.409615 14.604236 -25.283304 -54.630178 -90.009320 21.558939 7.619303 0.826906 -0.547235 19.539655 -24.403918 11.531436 -9.475321 -12.713024 9.405867 -1.946344 -7.889888 -10.926159 7.831094 0.047918 -0.718050 0.180490 -7.280720 -1.645554 0.041312 0.720207 12.275443 0.136305 3.302304 -3.203055 -2.342585 0.084155 0.894727 0.087001
-0.689743 88.215937 20.716380 -15.921746 -6.840376 1.272951 2.871145 7.806924 -0.581708 1.696210 4.395082 -0.068466 2.120998 5.494023 -0.065222 1.696201 4.395089 -0.068463 -2.516188 20.635798 -3.242028 -3.626065 2.497976 -5.156930 4.186737 -8.322432 0.497014 16.227122 -22.397641 69.497962 69.668227 -2.427139 10.231312 8.339119 -4.006372 -12.909491 -3.417670 -6.539100 3.489882 14.354406 -25.500956 -54.236909 -90.106849 21.824331 7.871733 1.185721 -0.460749 19.598583 -24.482900 11.026190 -9.651062 -12.930483 10.706197 -2.197510 -8.034446 -11.410069 8.158528 0.075819 -0.834993 0.217403 -7.666352 -1.612249 -0.093701 0.708164 12.426408 0.027467 3.310164 -3.480133 -2.190338 0.086329 0.982198 0.097889
-0.558496 88.182473 20.911202 -15.566724 -6.860897 1.306655 2.854827 7.968631 -0.619829 1.718479 4.447115 -0.087751 2.148646 5.559151 -0.088832 1.718467 4.447120 -0.087748 -2.669321 20.602543 -3.201306 -3.915404 2.433378 -5.037792 4.393930 -8.409914 0.513858 16.391435 -22.820086 69.274295 70.040346 -2.208299 9.958351 8.597288 -3.957065 -13.112656 -3.474133 -6.593594 3.563834 14.121897 -25.712849 -53.861393 -90.244241 22.070079 8.101312 1.546691 -0.381657 19.644383 -24.489018 10.496627 -9.840331 -13.167715 11.932041 -2.448328 -8.162392 -11.822079 8.450801 0.077167 -0.936157 0.267738 -7.985252 -1.615961 -0.256753 0.673559 12.576558 -0.074245 3.317320 -3.729625 -2.037192 0.088155 1.050372 0.104546
-0.434891 88.151323 21.106585 -15.172253 -6.941177 1.323624 2.808681 8.175407 -0.636041 1.735419 4.509327 -0.108381 2.169611 5.637012 -0.114136 1.735404 4.509331 -0.108378 -2.819294 20.561546 -3.156689 -4.200109 2.354957 -4.912246 4.603469 -8.498707 0.531221 16.557762 -23.262354 69.038970 70.377390 -2.002674 9.708459 8.853838 -3.914546 -13.320502 -3.522553 -6.650242 3.638589 13.909854 -25.921628 -53.509278 -90.412936 22.295347 8.309962 1.909600 -0.312469 19.680520 -24.508639 9.999611 -10.033287 -13.421921 13.201257 -2.721387 -8.304898 -12.209094 8.696389 0.085579 -1.049894 0.354395 -8.317446 -1.567470 -0.414383 0.603714 12.737540 -0.174177 3.331293 -3.977144 -1.881797 0.088808 1.114687 0.102905
-0.315688 88.123151 21.293179 -14.774120 -7.021334 1.344381 2.772874 8.371776 -0.648307 1.745949 4.580634 -0.130673 2.182536 5.726250 -0.141551 1.745932 4.580638 -0.130669 -2.968675 20.513130 -3.107278 -4.485160 2.263294 -4.777859 4.805464 -8.587908 0.550099 16.722966 -23.719445 68.803472 70.688621 -1.817679 9.489282 9.114955 -3.881824 -13.530685 -3.565510 -6.702778 3.721562 13.719473 -26.134779 -53.182627 -90.608956 22.499149 8.498698 2.272044 -0.250548 19.710143 -24.511799 9.482869 -10.224936 -13.678096 14.488667 -3.000156 -8.445158 -12.588536 8.872015 0.074829 -1.140697 0.473581 -8.628199 -1.530309 -0.573142 0.496114 12.902688 -0.275709 3.354315 -4.190039 -1.719977 0.087919 1.152593 0.092209
-0.201302 88.099466 21.467699 -14.378908 -7.083393 1.374085 2.755021 8.545147 -0.661729 1.750390 4.659147 -0.154682 2.187816 5.824502 -0.171155 1.750371 4.659149 -0.154678 -3.120149 20.458274 -3.052266 -4.775750 2.160227 -4.632338 5.003149 -8.675340 0.572837 16.864923 -24.186820 68.570077 70.985627 -1.654622 9.312647 9.384435 -3.857964 -13.737934 -3.607762 -6.749722 3.810957 13.550075 -26.356654 -52.875053 -90.831505 22.686754 8.669115 2.634846 -0.192291 19.733774 -24.501761 8.931180 -10.414049 -13.926446 15.782455 -3.275442 -8.579830 -12.955156 8.953544 0.042491 -1.201765 0.628736 -8.912911 -1.526839 -0.733636 0.359899 13.077791 -0.377296 3.380889 -4.369960 -1.552351 0.085084 1.164402 0.073700
-0.096411 88.082186 21.630730 -13.973303 -7.139024 1.393712 2.740178 8.714020 -0.661832 1.750137 4.742466 -0.178986 2.187213 5.928763 -0.201166 1.750117 4.742467 -0.178983 -3.274964 20.397260 -2.992489 -5.073957 2.046318 -4.476787 5.210094 -8.757856 0.598219 16.975240 -24.670581 68.328610 71.262864 -1.512035 9.175166 9.665824 -3.837951 -13.943816 -3.652950 -6.795890 3.898310 13.399672 -26.585498 -52.574784 -91.074316 22.860759 8.825857 2.993234 -0.135139 19.752985 -24.502539 8.364176 -10.585668 -14.164419 17.071804 -3.546717 -8.712522 -13.283559 8.915990 0.005957 -1.247456 0.828020 -9.189134 -1.546209 -0.877495 0.216165 13.271688 -0.476105 3.398610 -4.527823 -1.380809 0.079392 1.155632 0.048416
-0.001113 88.072224 21.777546 -13.575367 -7.161569 1.402290 2.745992 8.856976 -0.651354 1.746349 4.829676 -0.201889 2.182196 6.037880 -0.229454 1.746327 4.829676 -0.201886 -3.434934 20.328964 -2.929287 -5.382729 1.919520 -4.313022 5.420517 -8.837225 0.621785 17.074502 -25.165822 68.079093 71.518032 -1.372910 9.047112 9.966725 -3.818680 -14.154064 -3.702168 -6.841420 3.979984 13.273384 -26.825337 -52.276017 -91.335233 23.014862 8.965120 3.337823 -0.082672 19.773153 -24.494695 7.764430 -10.719205 -14.391390 18.345510 -3.812248 -8.841244 -13.573700 8.739225 -0.030402 -1.270598 1.072050 -9.445035 -1.613892 -0.996294 0.083923 13.480958 -0.569965 3.400012 -4.653399 -1.206783 0.070192 1.120142 0.018416
0.081187 88.071117 21.911609 -13.168764 -7.177986 1.381831 2.754729 9.000345 -0.618278 1.740917 4.920869 -0.221422 2.175159 6.151958 -0.253531 1.740894 4.920869 -0.221417 -3.602901 20.251848 -2.864810 -5.706650 1.777000 -4.144001 5.625950 -8.916511 0.638012 17.176060 -25.659480 67.831754 71.760638 -1.208514 8.906811 10.293195 -3.795670 -14.385505 -3.755894 -6.884829 4.055220 13.171117 -27.082452 -51.981243 -91.610523 23.145753 9.081937 3.659333 -0.044401 19.808336 -24.499887 7.168615 -10.810847 -14.589913 19.595135 -4.064889 -8.981968 -13.795549 8.422548 -0.051364 -1.295328 1.352451 -9.703985 -1.697442 -1.077045 -0.033235 13.703779 -0.659046 3.389594 -4.754906 -1.034467 0.057818 1.064937 -0.013670
0.149852 88.079969 22.037192 -12.745333 -7.215879 1.326954 2.749592 9.169796 -0.562055 1.736995 5.015806 -0.235997 2.170070 6.270693 -0.271373 1.736971 5.015806 -0.235993 -3.780178 20.165614 -2.802156 -6.047264 1.618209 -3.974871 5.828118 -8.995330 0.644977 17.283476 -26.146768 67.587821 71.995507 -0.999592 8.749067 10.644579 -3.759980 -14.655745 -3.809053 -6.930652 4.119905 13.079460 -27.351451 -51.687720 -91.896788 23.248326 9.178404 3.941751 -0.023839 19.871091 -24.542551 6.609665 -10.875690 -14.741259 20.810076 -4.298686 -9.134142 -13.926852 8.009368 -0.060588 -1.339473 1.630838 -9.979968 -1.765600 -1.119993 -0.139778 13.940389 -0.745872 3.375362 -4.845675 -0.866888 0.044236 0.999774 -0.044965
